<?xml version="1.0" encoding="UTF-8"?>
<svg width="700pt" height="700pt" version="1.1" viewBox="0 0 700 700" xmlns="http://www.w3.org/2000/svg" xmlns:xlink="http://www.w3.org/1999/xlink">
 <defs>
  <symbol id="w" overflow="visible">
   <path d="m7.3281-0.4375c-0.375 0.19922-0.77344 0.34375-1.1875 0.4375-0.40625 0.10156-0.83594 0.15625-1.2812 0.15625-1.3242 0-2.375-0.36719-3.1562-1.1094-0.77344-0.75-1.1562-1.7578-1.1562-3.0312 0-1.2695 0.38281-2.2734 1.1562-3.0156 0.78125-0.75 1.832-1.125 3.1562-1.125 0.44531 0 0.875 0.054688 1.2812 0.15625 0.41406 0.10547 0.8125 0.25 1.1875 0.4375v1.6562c-0.38672-0.25781-0.76562-0.44531-1.1406-0.5625-0.36719-0.125-0.75-0.1875-1.1562-0.1875-0.73047 0-1.3086 0.23438-1.7344 0.70312-0.41797 0.46875-0.625 1.1172-0.625 1.9375 0 0.82422 0.20703 1.4766 0.625 1.9531 0.42578 0.46875 1.0039 0.70312 1.7344 0.70312 0.40625 0 0.78906-0.0625 1.1562-0.1875 0.375-0.125 0.75391-0.31641 1.1406-0.57812z"/>
  </symbol>
  <symbol id="c" overflow="visible">
   <path d="m5.3594-4.3594c-0.16797-0.070313-0.33594-0.125-0.5-0.15625-0.16797-0.039063-0.33594-0.0625-0.5-0.0625-0.49219 0-0.87109 0.15625-1.1406 0.46875-0.26172 0.3125-0.39062 0.76562-0.39062 1.3594v2.75h-1.9062v-5.9844h1.9062v0.98438c0.25-0.39453 0.53125-0.67969 0.84375-0.85938 0.32031-0.17578 0.70703-0.26562 1.1562-0.26562 0.0625 0 0.12891 0.007812 0.20312 0.015625 0.070312 0 0.17969 0.011719 0.32812 0.03125z"/>
  </symbol>
  <symbol id="a" overflow="visible">
   <path d="m6.8906-3v0.53125h-4.4688c0.039063 0.44922 0.20312 0.78906 0.48438 1.0156 0.28125 0.23047 0.66406 0.34375 1.1562 0.34375 0.40625 0 0.81641-0.054687 1.2344-0.17188 0.42578-0.125 0.86328-0.3125 1.3125-0.5625v1.4844c-0.46094 0.16797-0.91406 0.29297-1.3594 0.375-0.44922 0.09375-0.90234 0.14062-1.3594 0.14062-1.0859 0-1.9297-0.27344-2.5312-0.82812-0.59375-0.55078-0.89062-1.3203-0.89062-2.3125 0-0.97656 0.28906-1.7422 0.875-2.2969 0.59375-0.5625 1.4062-0.84375 2.4375-0.84375 0.94531 0 1.7031 0.28906 2.2656 0.85938 0.5625 0.5625 0.84375 1.3203 0.84375 2.2656zm-1.9688-0.64062c0-0.36328-0.10938-0.65625-0.32812-0.875-0.21094-0.22656-0.48047-0.34375-0.8125-0.34375-0.375 0-0.67969 0.10547-0.90625 0.3125-0.23047 0.21094-0.375 0.51172-0.4375 0.90625z"/>
  </symbol>
  <symbol id="d" overflow="visible">
   <path d="m3.5938-2.6875c-0.39844 0-0.69922 0.070312-0.90625 0.20312-0.19922 0.13672-0.29688 0.33594-0.29688 0.59375 0 0.24219 0.082031 0.43359 0.25 0.57812 0.16406 0.13672 0.39062 0.20312 0.67188 0.20312 0.36328 0 0.66406-0.12891 0.90625-0.39062 0.25-0.25781 0.375-0.58203 0.375-0.96875v-0.21875zm2.9219-0.71875v3.4062h-1.9219v-0.89062c-0.26172 0.36719-0.55469 0.63281-0.875 0.79688-0.3125 0.16406-0.69922 0.25-1.1562 0.25-0.625 0-1.1328-0.17578-1.5156-0.53125-0.38672-0.36328-0.57812-0.83594-0.57812-1.4219 0-0.69531 0.23828-1.207 0.71875-1.5312 0.48828-0.33203 1.25-0.5 2.2812-0.5h1.125v-0.15625c0-0.30078-0.12109-0.51953-0.35938-0.65625-0.24219-0.14453-0.60938-0.21875-1.1094-0.21875-0.41797 0-0.80469 0.042969-1.1562 0.125-0.34375 0.085937-0.66797 0.21094-0.96875 0.375v-1.4688c0.40625-0.09375 0.8125-0.16406 1.2188-0.21875 0.41406-0.050781 0.83203-0.078125 1.25-0.078125 1.0703 0 1.8477 0.21484 2.3281 0.64062 0.47656 0.42969 0.71875 1.1211 0.71875 2.0781z"/>
  </symbol>
  <symbol id="b" overflow="visible">
   <path d="m3-7.6875v1.7031h1.9844v1.375h-1.9844v2.5312c0 0.28125 0.054688 0.46875 0.17188 0.5625 0.11328 0.09375 0.33203 0.14062 0.65625 0.14062h0.98438v1.375h-1.6406c-0.75 0-1.2891-0.15625-1.6094-0.46875-0.3125-0.3125-0.46875-0.84766-0.46875-1.6094v-2.5312h-0.95312v-1.375h0.95312v-1.7031z"/>
  </symbol>
  <symbol id="k" overflow="visible">
   <path d="m4.9844-5.1094v-3.2031h1.9219v8.3125h-1.9219v-0.85938c-0.26172 0.34375-0.55469 0.60156-0.875 0.76562-0.3125 0.16406-0.67969 0.25-1.0938 0.25-0.74219 0-1.3516-0.28906-1.8281-0.875-0.46875-0.59375-0.70312-1.3477-0.70312-2.2656 0-0.92578 0.23438-1.6797 0.70312-2.2656 0.47656-0.58203 1.0859-0.875 1.8281-0.875 0.41406 0 0.78125 0.085938 1.0938 0.25 0.32031 0.16797 0.61328 0.42188 0.875 0.76562zm-1.25 3.875c0.40625 0 0.71094-0.14453 0.92188-0.4375 0.21875-0.30078 0.32812-0.73828 0.32812-1.3125 0-0.57031-0.10938-1.0039-0.32812-1.2969-0.21094-0.30078-0.51562-0.45312-0.92188-0.45312s-0.71875 0.15234-0.9375 0.45312c-0.21875 0.29297-0.32812 0.72656-0.32812 1.2969 0 0.57422 0.10938 1.0117 0.32812 1.3125 0.21875 0.29297 0.53125 0.4375 0.9375 0.4375z"/>
  </symbol>
  <symbol id="j" overflow="visible">
   <path d="m4.1094-1.2344c0.40625 0 0.71094-0.14453 0.92188-0.4375 0.21875-0.30078 0.32812-0.73828 0.32812-1.3125 0-0.57031-0.10938-1.0039-0.32812-1.2969-0.21094-0.30078-0.51562-0.45312-0.92188-0.45312-0.41797 0-0.73438 0.15234-0.95312 0.45312-0.21875 0.30469-0.32812 0.73438-0.32812 1.2969s0.10938 0.99609 0.32812 1.2969c0.21875 0.30469 0.53516 0.45312 0.95312 0.45312zm-1.2812-3.875c0.25781-0.34375 0.55078-0.59766 0.875-0.76562 0.32031-0.16406 0.69141-0.25 1.1094-0.25 0.73828 0 1.3438 0.29297 1.8125 0.875 0.47656 0.58594 0.71875 1.3398 0.71875 2.2656 0 0.91797-0.24219 1.6719-0.71875 2.2656-0.46875 0.58594-1.0742 0.875-1.8125 0.875-0.41797 0-0.78906-0.085938-1.1094-0.25-0.32422-0.16406-0.61719-0.42188-0.875-0.76562v0.85938h-1.9062v-8.3125h1.9062z"/>
  </symbol>
  <symbol id="i" overflow="visible">
   <path d="m0.14062-5.9844h1.9062l1.6094 4.0625 1.3594-4.0625h1.9219l-2.5156 6.5469c-0.26172 0.66406-0.55859 1.1289-0.89062 1.3906-0.33594 0.26953-0.77734 0.40625-1.3281 0.40625h-1.1094v-1.25h0.59375c0.32031 0 0.55469-0.054687 0.70312-0.15625 0.15625-0.10547 0.27344-0.29297 0.35938-0.5625l0.046875-0.15625z"/>
  </symbol>
  <symbol id="h" overflow="visible">
   <path d="m4.2031-4.8906c0.32031 0 0.56641-0.066406 0.73438-0.20312 0.16406-0.14453 0.25-0.35938 0.25-0.64062 0-0.26953-0.085938-0.47656-0.25-0.625-0.16797-0.14453-0.41406-0.21875-0.73438-0.21875h-1.1406v1.6875zm0.0625 3.4844c0.41406 0 0.72656-0.082031 0.9375-0.25 0.20703-0.17578 0.3125-0.44141 0.3125-0.79688 0-0.34375-0.10547-0.59766-0.3125-0.76562-0.21094-0.17578-0.52344-0.26562-0.9375-0.26562h-1.2031v2.0781zm1.9062-2.8594c0.44531 0.125 0.78906 0.36719 1.0312 0.71875 0.23828 0.34375 0.35938 0.76562 0.35938 1.2656 0 0.77344-0.26172 1.3438-0.78125 1.7188-0.51172 0.375-1.2969 0.5625-2.3594 0.5625h-3.4219v-7.9688h3.0938c1.1016 0 1.8984 0.16797 2.3906 0.5 0.5 0.33594 0.75 0.87109 0.75 1.6094 0 0.38672-0.089844 0.71484-0.26562 0.98438-0.17969 0.27344-0.44531 0.47656-0.79688 0.60938z"/>
  </symbol>
  <symbol id="v" overflow="visible">
   <path d="m5.5938-5.7969v1.4531c-0.40625-0.16406-0.80469-0.28906-1.1875-0.375-0.38672-0.09375-0.74609-0.14062-1.0781-0.14062-0.36719 0-0.63672 0.046875-0.8125 0.14062-0.17969 0.09375-0.26562 0.23438-0.26562 0.42188 0 0.15625 0.066406 0.27734 0.20312 0.35938 0.13281 0.074219 0.375 0.13281 0.71875 0.17188l0.34375 0.046875c0.97656 0.125 1.6328 0.33594 1.9688 0.625 0.33203 0.28125 0.5 0.72656 0.5 1.3281 0 0.63672-0.23438 1.1172-0.70312 1.4375-0.46875 0.32422-1.168 0.48438-2.0938 0.48438-0.39844 0-0.80859-0.03125-1.2344-0.09375-0.41797-0.0625-0.85156-0.15625-1.2969-0.28125v-1.4531c0.38281 0.1875 0.77344 0.32812 1.1719 0.42188 0.40625 0.09375 0.8125 0.14062 1.2188 0.14062 0.375 0 0.65625-0.050781 0.84375-0.15625 0.1875-0.10156 0.28125-0.25781 0.28125-0.46875 0-0.16406-0.070313-0.28906-0.20312-0.375-0.125-0.082031-0.38281-0.14844-0.76562-0.20312l-0.32812-0.03125c-0.85547-0.11328-1.4531-0.3125-1.7969-0.59375-0.34375-0.28906-0.51562-0.72656-0.51562-1.3125 0-0.63281 0.21875-1.1016 0.65625-1.4062 0.4375-0.3125 1.1016-0.46875 2-0.46875 0.35156 0 0.72266 0.027344 1.1094 0.078125 0.38281 0.054687 0.80469 0.13672 1.2656 0.25z"/>
  </symbol>
  <symbol id="u" overflow="visible">
   <path d="m0.92188-5.9844h1.9062v5.9844h-1.9062zm0-2.3281h1.9062v1.5625h-1.9062z"/>
  </symbol>
  <symbol id="g" overflow="visible">
   <path d="m6.9375-3.6406v3.6406h-1.9219v-2.7812c0-0.51953-0.015625-0.87891-0.046875-1.0781-0.023438-0.19531-0.058594-0.33594-0.10938-0.42188-0.074219-0.125-0.17969-0.22266-0.3125-0.29688-0.125-0.070313-0.27344-0.10938-0.4375-0.10938-0.39844 0-0.71094 0.15625-0.9375 0.46875-0.23047 0.30469-0.34375 0.73047-0.34375 1.2812v2.9375h-1.9062v-5.9844h1.9062v0.875c0.28906-0.34375 0.59766-0.59766 0.92188-0.76562 0.32031-0.16406 0.67969-0.25 1.0781-0.25 0.6875 0 1.207 0.21484 1.5625 0.64062 0.36328 0.41797 0.54688 1.0312 0.54688 1.8438z"/>
  </symbol>
  <symbol id="t" overflow="visible">
   <path d="m3.0625-6.4219v4.875h0.73438c0.84375 0 1.4844-0.20703 1.9219-0.625 0.44531-0.41406 0.67188-1.0234 0.67188-1.8281 0-0.78906-0.22656-1.3906-0.67188-1.7969-0.4375-0.41406-1.0781-0.625-1.9219-0.625zm-2.0625-1.5469h2.1719c1.207 0 2.1094 0.089844 2.7031 0.26562 0.59375 0.16797 1.1016 0.45312 1.5312 0.85938 0.375 0.36719 0.64844 0.78125 0.82812 1.25 0.17578 0.46875 0.26562 1 0.26562 1.5938 0 0.60547-0.089844 1.1484-0.26562 1.625-0.17969 0.46875-0.45312 0.88281-0.82812 1.2344-0.42969 0.41797-0.94531 0.71484-1.5469 0.89062-0.59375 0.16797-1.4922 0.25-2.6875 0.25h-2.1719z"/>
  </symbol>
  <symbol id="s" overflow="visible">
   <path d="m0.92188-8.3125h1.9062v8.3125h-1.9062z"/>
  </symbol>
  <symbol id="f" overflow="visible">
   <path d="m6.4688-4.9844c0.23828-0.375 0.52344-0.65625 0.85938-0.84375 0.33203-0.19531 0.69531-0.29688 1.0938-0.29688 0.6875 0 1.207 0.21484 1.5625 0.64062 0.36328 0.41797 0.54688 1.0312 0.54688 1.8438v3.6406h-1.9219v-3.125-0.14062c0.007813-0.050781 0.015625-0.125 0.015625-0.21875 0-0.41406-0.0625-0.71875-0.1875-0.90625-0.125-0.19531-0.32812-0.29688-0.60938-0.29688-0.36719 0-0.64844 0.15234-0.84375 0.45312-0.19922 0.30469-0.29688 0.73438-0.29688 1.2969v2.9375h-1.9219v-3.125c0-0.65625-0.058594-1.0781-0.17188-1.2656-0.11719-0.19531-0.32031-0.29688-0.60938-0.29688-0.375 0-0.66406 0.15234-0.85938 0.45312-0.19922 0.30469-0.29688 0.73438-0.29688 1.2969v2.9375h-1.9219v-5.9844h1.9219v0.875c0.23828-0.33203 0.50781-0.58203 0.8125-0.75 0.30078-0.17578 0.63281-0.26562 1-0.26562 0.41406 0 0.78125 0.10156 1.0938 0.29688 0.32031 0.19922 0.56641 0.48047 0.73438 0.84375z"/>
  </symbol>
  <symbol id="r" overflow="visible">
   <path d="m4.8594-8.3125v1.25h-1.0625c-0.27344 0-0.46094 0.054688-0.5625 0.15625-0.10547 0.09375-0.15625 0.26562-0.15625 0.51562v0.40625h1.625v1.375h-1.625v4.6094h-1.9219v-4.6094h-0.95312v-1.375h0.95312v-0.40625c0-0.65625 0.17969-1.1406 0.54688-1.4531 0.36328-0.3125 0.92578-0.46875 1.6875-0.46875z"/>
  </symbol>
  <symbol id="e" overflow="visible">
   <path d="m3.7656-4.7656c-0.42969 0-0.75 0.15625-0.96875 0.46875-0.21875 0.30469-0.32812 0.74219-0.32812 1.3125 0 0.57422 0.10938 1.0117 0.32812 1.3125 0.21875 0.30469 0.53906 0.45312 0.96875 0.45312 0.41406 0 0.73438-0.14844 0.95312-0.45312 0.21875-0.30078 0.32812-0.73828 0.32812-1.3125 0-0.57031-0.10938-1.0078-0.32812-1.3125-0.21875-0.3125-0.53906-0.46875-0.95312-0.46875zm0-1.3594c1.0312 0 1.832 0.28125 2.4062 0.84375 0.58203 0.55469 0.875 1.3203 0.875 2.2969 0 0.98047-0.29297 1.75-0.875 2.3125-0.57422 0.55469-1.375 0.82812-2.4062 0.82812s-1.8398-0.27344-2.4219-0.82812c-0.58594-0.5625-0.875-1.332-0.875-2.3125 0-0.97656 0.28906-1.7422 0.875-2.2969 0.58203-0.5625 1.3906-0.84375 2.4219-0.84375z"/>
  </symbol>
  <symbol id="q" overflow="visible">
   <path d="m6.9375-3.6406v3.6406h-1.9219v-2.7812c0-0.51953-0.015625-0.87891-0.046875-1.0781-0.023438-0.19531-0.058594-0.33594-0.10938-0.42188-0.074219-0.125-0.17969-0.22266-0.3125-0.29688-0.125-0.070313-0.27344-0.10938-0.4375-0.10938-0.39844 0-0.71094 0.15625-0.9375 0.46875-0.23047 0.30469-0.34375 0.73047-0.34375 1.2812v2.9375h-1.9062v-8.3125h1.9062v3.2031c0.28906-0.34375 0.59766-0.59766 0.92188-0.76562 0.32031-0.16406 0.67969-0.25 1.0781-0.25 0.6875 0 1.207 0.21484 1.5625 0.64062 0.36328 0.41797 0.54688 1.0312 0.54688 1.8438z"/>
  </symbol>
  <symbol id="p" overflow="visible">
   <path d="m1-7.9688h2.2969l2.9062 5.4688v-5.4688h1.9531v7.9688h-2.2969l-2.9062-5.4688v5.4688h-1.9531z"/>
  </symbol>
  <symbol id="o" overflow="visible">
   <path d="m0.85938-2.3281v-3.6562h1.9219v0.59375c0 0.33594-0.007812 0.74609-0.015625 1.2344v0.96875c0 0.48047 0.007813 0.82812 0.03125 1.0469 0.03125 0.21094 0.078125 0.35938 0.14062 0.45312 0.070312 0.125 0.17188 0.22656 0.29688 0.29688 0.125 0.0625 0.26953 0.09375 0.4375 0.09375 0.39453 0 0.70703-0.14844 0.9375-0.45312 0.22656-0.3125 0.34375-0.73828 0.34375-1.2812v-2.9531h1.9219v5.9844h-1.9219v-0.85938c-0.28125 0.34375-0.58594 0.60156-0.90625 0.76562-0.32422 0.16406-0.68359 0.25-1.0781 0.25-0.6875 0-1.2148-0.20703-1.5781-0.625-0.35547-0.42578-0.53125-1.0469-0.53125-1.8594z"/>
  </symbol>
  <symbol id="n" overflow="visible">
   <path d="m1-7.9688h3.4219c1.0078 0 1.7852 0.22656 2.3281 0.67188 0.53906 0.44922 0.8125 1.0898 0.8125 1.9219 0 0.83594-0.27344 1.4805-0.8125 1.9375-0.54297 0.44922-1.3203 0.67188-2.3281 0.67188h-1.3594v2.7656h-2.0625zm2.0625 1.4844v2.2344h1.1406c0.39453 0 0.70312-0.097656 0.92188-0.29688 0.21875-0.19531 0.32812-0.47266 0.32812-0.82812 0-0.35156-0.10938-0.625-0.32812-0.8125-0.21875-0.19531-0.52734-0.29688-0.92188-0.29688z"/>
  </symbol>
  <symbol id="m" overflow="visible">
   <path d="m0.92188-5.9844h1.9062v5.875c0 0.80078-0.19531 1.4102-0.57812 1.8281-0.38672 0.42578-0.94531 0.64062-1.6719 0.64062h-0.9375v-1.25h0.32812c0.36328 0 0.61328-0.085937 0.75-0.25 0.13281-0.16797 0.20312-0.49219 0.20312-0.96875zm0-2.3281h1.9062v1.5625h-1.9062z"/>
  </symbol>
  <symbol id="l" overflow="visible">
   <path d="m5.75-5.7969v1.5625c-0.26172-0.17578-0.52344-0.30469-0.78125-0.39062-0.26172-0.09375-0.53125-0.14062-0.8125-0.14062-0.53125 0-0.94922 0.15625-1.25 0.46875-0.29297 0.3125-0.4375 0.75-0.4375 1.3125s0.14453 1 0.4375 1.3125c0.30078 0.30469 0.71875 0.45312 1.25 0.45312 0.30078 0 0.58203-0.039062 0.84375-0.125 0.26953-0.09375 0.51953-0.22266 0.75-0.39062v1.5625c-0.30469 0.10547-0.60938 0.17969-0.92188 0.23438-0.30469 0.0625-0.60547 0.09375-0.90625 0.09375-1.0859 0-1.9336-0.27344-2.5469-0.82812-0.60547-0.55078-0.90625-1.3203-0.90625-2.3125 0-0.98828 0.30078-1.7578 0.90625-2.3125 0.61328-0.55078 1.4609-0.82812 2.5469-0.82812 0.3125 0 0.61719 0.03125 0.92188 0.09375 0.30078 0.054688 0.60156 0.13281 0.90625 0.23438z"/>
  </symbol>
 </defs>
 <g>
  <path d="m525.22 148.75h-66.719c-2.4062-26.25-24.5-45.938-51.406-45.938h-107.62c-26.906 0-49 19.688-51.406 45.938h-66.719c-16.625 0-30.406 14.438-30.406 31.281v246.97c0 16.844 13.781 30.188 30.406 30.188h343.88c16.844 0 30.406-13.344 30.406-30.188v-246.97c0-16.844-13.562-31.281-30.406-31.281zm-225.75-28.438h107.62c17.281 0 31.719 13.125 34.125 28.438h-175.66c2.1875-15.312 16.625-28.438 33.906-28.438zm238.66 306.03c0 7.2188-5.9062 13.344-13.344 13.344h-343c-7.2188 0-13.344-5.9062-13.344-13.344v-246.75c0-7.2188 5.9062-13.344 13.344-13.344h343.22c7.2188 0 13.344 5.9062 13.344 13.344v246.75z"/>
  <path d="m435.75 280h-0.875c-1.5312 0-3.7188-0.65625-4.375-2.625-0.875-2.625-2.1875-5.25-3.5-8.5312-0.875-1.75-0.4375-3.7188 0.875-5.0312l0.4375-0.4375c4.1562-4.1562 6.5625-9.8438 6.5625-15.75s-2.4062-11.594-6.5625-15.75l-2.625-2.625c-4.1562-4.1562-9.8438-6.3438-15.75-6.3438s-11.594 2.4062-15.75 6.7812l-0.21875 0.21875c-1.3125 1.5312-3.5 1.9688-5.25 1.0938-2.4062-1.0938-5.0312-1.9688-7.4375-2.8438l-1.5312-0.65625c-1.9688-0.65625-3.2812-2.625-3.2812-4.375v-0.875c0-12.906-9.625-22.75-21.438-22.75h-5.25c-12.031 0-21.438 10.5-21.438 22.75v0.65625c0 1.9688-1.5312 3.7188-3.5 4.375-3.0625 1.0938-6.125 2.4062-9.1875 3.7188-1.75 0.875-3.9375 0.65625-5.4688-0.875l-0.65625-0.4375c-4.1562-4.1562-9.8438-6.3438-15.75-6.3438s-11.375 2.1875-15.75 6.3438l-2.8438 2.625c-4.1562 4.1562-6.5625 9.8438-6.5625 15.75s2.4062 11.594 6.7812 15.75l0.21875 0.21875c1.5312 1.3125 1.9688 3.5 1.0938 5.25-1.3125 2.625-2.4062 5.25-3.5 8.3125-0.65625 1.9688-2.625 2.625-4.375 2.625h-0.21875c-12.031 0-21.438 10.5-21.438 22.75v5.25c0 11.156 8.9688 19.688 21.656 20.125h0.4375c1.5312 0 3.2812 1.75 3.9375 3.9375l0.4375 1.3125c0.875 2.625 1.9688 5.4688 3.2812 8.3125 0.875 1.75 0.4375 4.1562-0.875 5.6875-0.21875 0.21875-0.4375 0.4375-0.4375 0.65625l-0.21875 0.4375c-3.9375 4.1562-6.125 9.625-6.125 15.531s2.4062 11.594 6.3438 15.75l2.8438 3.0625c4.1562 4.1562 9.8438 6.7812 15.75 6.7812s11.375-2.625 15.531-6.7812l0.4375-0.875c1.3125-1.3125 3.5-1.75 5.25-0.875 2.8438 1.5312 5.9062 2.625 8.9688 3.7188s3.0625 2.625 3.0625 3.2812c0 12.031 9.625 21.219 22.094 21.219h5.25c12.469 0 21.438-8.0938 21.438-20.125v-0.21875c0-1.75 1.3125-3.5 3.5-4.375 2.8438-1.0938 5.6875-2.1875 8.5312-3.5 1.75-0.875 3.9375-0.4375 5.4688 1.0938 0.21875 0.21875 0.4375 0.65625 0.875 0.875v0.21875c4.1562 3.9375 9.4062 6.5625 15.312 6.5625s11.594-2.625 15.75-7l2.8438-3.2812c4.1562-4.1562 6.5625-9.8438 6.5625-15.75s-2.4062-11.375-6.5625-15.531l-0.4375-0.4375c-1.3125-1.3125-1.75-3.5-0.875-5.25 1.3125-2.625 2.1875-5.4688 3.0625-8.0938l0.65625-1.75c0.875-2.4062 2.8438-3.9375 4.375-3.9375h0.65625c13.344 0 23.625-8.5312 23.625-20.125v-5.25c-0.21875-12.906-11.812-23.625-23.844-23.625zm6.125 28c0 2.1875-4.8125 2.625-6.125 2.625h-0.65625c-9.1875 0-17.719 6.5625-21 15.75l-0.65625 1.9688c-0.65625 2.1875-1.5312 4.5938-2.1875 5.9062-4.1562 8.5312-2.4062 18.812 4.1562 25.375l0.4375 0.4375c0.875 0.875 1.3125 2.1875 1.3125 3.2812 0 1.3125-0.4375 2.625-1.3125 3.2812l-2.8438 3.0625c-1.0938 1.0938-2.625 1.75-3.2812 1.75s-2.1875-0.65625-3.2812-1.75c-0.21875-0.21875-0.4375-0.875-0.875-1.0938-6.7812-6.3438-16.625-8.0938-24.938-4.1562-2.1875 1.0938-4.5938 1.9688-7 2.8438-8.9688 3.2812-14.875 11.812-14.875 20.781v0.21875c0 1.9688-0.875 2.625-3.9375 2.625h-5.25c-0.4375 0-4.5938 0-4.5938-3.7188 0-9.1875-5.6875-16.844-14.875-19.906-2.4062-0.875-4.5938-1.75-7-2.8438-3.0625-1.5312-6.5625-2.1875-9.8438-2.1875-5.6875 0-11.375 2.4062-15.75 6.7812l-0.4375 0.65625c-0.875 0.875-1.9688 1.75-3.2812 1.75s-2.4062-0.875-3.2812-1.75l-2.8438-3.2812c-1.0938-1.0938-1.3125-2.625-1.3125-3.2812s0.21875-2.1875 1.3125-3.2812l0.4375-0.4375 0.21875-0.4375c6.3438-6.7812 8.0938-17.062 3.9375-25.375-0.875-1.75-1.5312-3.9375-2.4062-6.125l-0.4375-1.3125c-3.0625-8.9688-10.719-15.094-19.25-15.75h-0.4375c-2.1875 0-5.25-0.875-5.25-2.625v-5.25c0-2.625 1.5312-5.25 3.9375-5.25h0.65625c9.4062 0 17.719-5.6875 20.781-14.219 0.875-2.1875 1.75-4.375 2.8438-6.7812 3.9375-8.5312 2.1875-18.594-4.5938-25.375l-0.21875-0.21875c-0.875-0.875-1.3125-1.9688-1.3125-3.2812 0-0.65625 0.21875-2.1875 1.3125-3.2812l2.8438-2.8438c0.875-0.875 1.9688-1.3125 3.2812-1.3125s2.4062 0.4375 3.2812 1.3125l0.4375 0.4375c6.7812 6.7812 16.844 8.3125 25.375 4.1562 2.4062-1.0938 5.0312-2.1875 7.4375-2.8438 8.75-3.0625 15.094-11.375 15.094-20.781v-0.65625c0-2.625 1.5312-5.25 3.9375-5.25h5.25c2.4062 0 3.9375 3.2812 3.9375 5.25v0.875c0 8.9688 5.9062 17.5 14.875 20.781 0.65625 0.21875 1.0938 0.4375 1.75 0.65625 1.9688 0.65625 4.1562 1.5312 5.6875 2.1875 8.5312 3.9375 18.594 1.9688 25.156-4.8125l0.21875-0.21875c0.875-0.875 1.9688-1.3125 3.2812-1.3125 0.65625 0 2.1875 0.21875 3.2812 1.3125l2.625 2.625c0.875 0.875 1.3125 1.9688 1.3125 3.2812 0 1.0938-0.4375 2.1875-1.3125 3.0625l-0.4375 0.4375c-6.7812 6.5625-8.5312 16.844-4.5938 25.156 1.3125 2.625 2.1875 4.8125 2.8438 7 3.0625 8.75 11.375 14.219 20.781 14.219h0.875c2.625 0 6.125 2.8438 6.125 5.25v5.9062z"/>
  <path d="m352.19 255.72c-27.344 0-49.656 22.312-49.656 49.656s22.312 49.656 49.656 49.656 49.656-22.312 49.656-49.656-22.312-49.656-49.656-49.656zm0 82.031c-17.938 0-32.375-14.656-32.375-32.375 0-17.938 14.656-32.375 32.375-32.375s32.375 14.656 32.375 32.375c0 17.938-14.438 32.375-32.375 32.375z"/>
  <use x="70" y="592.8125" xlink:href="#w"/>
  <use x="78.027344" y="592.8125" xlink:href="#c"/>
  <use x="83.421875" y="592.8125" xlink:href="#a"/>
  <use x="90.839844" y="592.8125" xlink:href="#d"/>
  <use x="98.21875" y="592.8125" xlink:href="#b"/>
  <use x="103.449219" y="592.8125" xlink:href="#a"/>
  <use x="110.867188" y="592.8125" xlink:href="#k"/>
  <use x="122.503906" y="592.8125" xlink:href="#j"/>
  <use x="130.332031" y="592.8125" xlink:href="#i"/>
  <use x="141.269531" y="592.8125" xlink:href="#h"/>
  <use x="149.605469" y="592.8125" xlink:href="#d"/>
  <use x="156.988281" y="592.8125" xlink:href="#v"/>
  <use x="163.496094" y="592.8125" xlink:href="#b"/>
  <use x="168.726562" y="592.8125" xlink:href="#u"/>
  <use x="172.476562" y="592.8125" xlink:href="#a"/>
  <use x="179.894531" y="592.8125" xlink:href="#g"/>
  <use x="191.488281" y="592.8125" xlink:href="#t"/>
  <use x="200.566406" y="592.8125" xlink:href="#a"/>
  <use x="207.984375" y="592.8125" xlink:href="#s"/>
  <use x="211.734375" y="592.8125" xlink:href="#f"/>
  <use x="223.128906" y="592.8125" xlink:href="#d"/>
  <use x="230.511719" y="592.8125" xlink:href="#c"/>
  <use x="235.90625" y="592.8125" xlink:href="#a"/>
  <use x="70" y="603.75" xlink:href="#r"/>
  <use x="74.757812" y="603.75" xlink:href="#c"/>
  <use x="80.152344" y="603.75" xlink:href="#e"/>
  <use x="87.667969" y="603.75" xlink:href="#f"/>
  <use x="102.871094" y="603.75" xlink:href="#b"/>
  <use x="108.101562" y="603.75" xlink:href="#q"/>
  <use x="115.886719" y="603.75" xlink:href="#a"/>
  <use x="127.113281" y="603.75" xlink:href="#p"/>
  <use x="136.265625" y="603.75" xlink:href="#e"/>
  <use x="143.78125" y="603.75" xlink:href="#o"/>
  <use x="151.566406" y="603.75" xlink:href="#g"/>
  <use x="163.160156" y="603.75" xlink:href="#n"/>
  <use x="171.175781" y="603.75" xlink:href="#c"/>
  <use x="176.570312" y="603.75" xlink:href="#e"/>
  <use x="184.085938" y="603.75" xlink:href="#m"/>
  <use x="187.835937" y="603.75" xlink:href="#a"/>
  <use x="195.253906" y="603.75" xlink:href="#l"/>
  <use x="201.734375" y="603.75" xlink:href="#b"/>
 </g>
</svg>
